<?xml version="1.0" encoding="utf-8"?>
<!-- Generator: Adobe Illustrator 24.0.2, SVG Export Plug-In . SVG Version: 6.00 Build 0)  -->
<svg version="1.1" xmlns="http://www.w3.org/2000/svg" xmlns:xlink="http://www.w3.org/1999/xlink" x="0px" y="0px"
	 viewBox="0 0 499.32 163.77" style="enable-background:new 0 0 499.32 163.77;" xml:space="preserve">
<style type="text/css">
	.st0{fill:url(#SVGID_1_);}
	.st1{fill:url(#SVGID_2_);}
	.st2{fill:url(#SVGID_3_);}
	.st3{fill:url(#SVGID_4_);}
	.st4{fill:url(#SVGID_5_);}
	.st5{fill:url(#SVGID_6_);}
	.st6{fill:url(#SVGID_7_);}
	.st7{fill:url(#SVGID_8_);}
	.st8{fill:url(#SVGID_9_);}
	.st9{fill:url(#SVGID_10_);}
	.st10{fill:url(#SVGID_11_);}
	.st11{fill:url(#SVGID_12_);}
	.st12{fill:url(#SVGID_13_);}
	.st13{fill:url(#SVGID_14_);}
	.st14{fill:url(#SVGID_15_);}
	.st15{fill:url(#SVGID_16_);}
	.st16{fill:url(#SVGID_17_);}
	.st17{fill:url(#SVGID_18_);}
</style>
<g id="Background">
</g>
<g id="Objects">
	<linearGradient id="SVGID_1_" gradientUnits="userSpaceOnUse" x1="0.0122" y1="81.8863" x2="193.9991" y2="81.8863">
		<stop  offset="0" style="stop-color:#DB9600"/>
		<stop  offset="1" style="stop-color:#C64832"/>
	</linearGradient>
	<path class="st0" d="M193.9,17.62c-0.2-0.59-0.7-1.04-1.31-1.17l-75.3-16.41c-0.61-0.13-1.25,0.06-1.68,0.51L92.06,25.31L65.25,0.9
		c-0.56-0.51-1.37-0.61-2.04-0.26L0.97,33.37c-0.5,0.26-0.85,0.75-0.93,1.31c-0.09,0.56,0.09,1.13,0.49,1.53l25.52,25.97
		l-0.02,84.31c0,0.85,0.6,1.59,1.44,1.75l77.58,15.51c0.12,0.02,0.23,0.03,0.35,0.03c0.41,0,0.81-0.14,1.13-0.4
		c0.41-0.34,0.65-0.85,0.65-1.38V81.9c0-0.85-0.6-1.59-1.44-1.75l-11.16-2.2V30.99l72.77,17.59l-54.03,30.71
		c-0.56,0.32-0.9,0.91-0.9,1.55v79.01c0,0.63,0.33,1.22,0.88,1.54c0.28,0.17,0.59,0.25,0.91,0.25c0.3,0,0.59-0.07,0.86-0.22
		l56.21-30.95c0.57-0.31,0.93-0.91,0.93-1.57l0.03-84.36l21.35-25.19C193.98,18.87,194.11,18.21,193.9,17.62z M89.9,77.03
		L31.41,65.52L89.9,32.05V77.03z M156.91,97.6c-0.06,0.57-0.38,1.07-0.88,1.35l-4.7,2.64l-0.07,18.57c0,0.63-0.34,1.2-0.89,1.51
		l-8.99,5.05c-0.26,0.15-0.56,0.22-0.85,0.22c-0.31,0-0.61-0.08-0.88-0.24c-0.53-0.31-0.86-0.89-0.86-1.51l0.07-16.6l-3.06,1.72
		c-0.67,0.38-1.51,0.27-2.06-0.26c-0.55-0.53-0.69-1.36-0.34-2.05l10.18-19.94c0.24-0.48,0.69-0.81,1.21-0.92
		c0.52-0.1,1.06,0.04,1.47,0.38l10.07,8.58C156.73,96.47,156.96,97.03,156.91,97.6z"/>
	<g>
		<linearGradient id="SVGID_2_" gradientUnits="userSpaceOnUse" x1="178.52" y1="60.4042" x2="202.999" y2="60.4042">
			<stop  offset="0" style="stop-color:#DB9600"/>
			<stop  offset="1" style="stop-color:#C64832"/>
		</linearGradient>
		<path class="st1" d="M179.84,74.29c2.34,1.44,5.76,2.64,9.36,2.64c5.34,0,8.46-2.82,8.46-6.9c0-3.78-2.16-5.94-7.62-8.04
			c-6.6-2.34-10.68-5.76-10.68-11.46c0-6.3,5.22-10.98,13.08-10.98c4.14,0,7.14,0.96,8.94,1.98l-1.44,4.26
			c-1.32-0.72-4.02-1.92-7.68-1.92c-5.52,0-7.62,3.3-7.62,6.06c0,3.78,2.46,5.64,8.04,7.8c6.84,2.64,10.32,5.94,10.32,11.88
			c0,6.24-4.62,11.64-14.16,11.64c-3.9,0-8.16-1.14-10.32-2.58L179.84,74.29z"/>
		<linearGradient id="SVGID_3_" gradientUnits="userSpaceOnUse" x1="209.2998" y1="60.4039" x2="215.8418" y2="60.4039">
			<stop  offset="0" style="stop-color:#DB9600"/>
			<stop  offset="1" style="stop-color:#C64832"/>
		</linearGradient>
		<path class="st2" d="M215.84,43.45c0.06,1.8-1.26,3.24-3.36,3.24c-1.86,0-3.18-1.44-3.18-3.24c0-1.86,1.38-3.3,3.3-3.3
			C214.58,40.15,215.84,41.59,215.84,43.45z M209.96,80.65V51.61h5.28v29.04H209.96z"/>
		<linearGradient id="SVGID_4_" gradientUnits="userSpaceOnUse" x1="220.6992" y1="62.264" x2="237.918" y2="62.264">
			<stop  offset="0" style="stop-color:#DB9600"/>
			<stop  offset="1" style="stop-color:#C64832"/>
		</linearGradient>
		<path class="st3" d="M230.36,43.27v8.34h7.56v4.02h-7.56v15.66c0,3.6,1.02,5.64,3.96,5.64c1.38,0,2.4-0.18,3.06-0.36l0.24,3.96
			c-1.02,0.42-2.64,0.72-4.68,0.72c-2.46,0-4.44-0.78-5.7-2.22c-1.5-1.56-2.04-4.14-2.04-7.56V55.63h-4.5v-4.02h4.5v-6.96
			L230.36,43.27z"/>
		<linearGradient id="SVGID_5_" gradientUnits="userSpaceOnUse" x1="241.3994" y1="66.1039" x2="267.0176" y2="66.1039">
			<stop  offset="0" style="stop-color:#DB9600"/>
			<stop  offset="1" style="stop-color:#C64832"/>
		</linearGradient>
		<path class="st4" d="M246.44,67.09c0.12,7.14,4.68,10.08,9.96,10.08c3.78,0,6.06-0.66,8.04-1.5l0.9,3.78
			c-1.86,0.84-5.04,1.8-9.66,1.8c-8.94,0-14.28-5.88-14.28-14.64s5.16-15.66,13.62-15.66c9.48,0,12,8.34,12,13.68
			c0,1.08-0.12,1.92-0.18,2.46H246.44z M261.92,63.31c0.06-3.36-1.38-8.58-7.32-8.58c-5.34,0-7.68,4.92-8.1,8.58H261.92z"/>
		<linearGradient id="SVGID_6_" gradientUnits="userSpaceOnUse" x1="284.1783" y1="59.6842" x2="311.5977" y2="59.6842">
			<stop  offset="0" style="stop-color:#DB9600"/>
			<stop  offset="1" style="stop-color:#C64832"/>
		</linearGradient>
		<path class="st5" d="M311.36,38.06v35.1c0,2.58,0.06,5.52,0.24,7.5h-4.74l-0.24-5.04h-0.12c-1.62,3.24-5.16,5.7-9.9,5.7
			c-7.02,0-12.42-5.94-12.42-14.76c-0.06-9.66,5.94-15.6,13.02-15.6c4.44,0,7.44,2.1,8.76,4.44h0.12V38.06H311.36z M306.08,63.43
			c0-0.66-0.06-1.56-0.24-2.22c-0.78-3.36-3.66-6.12-7.62-6.12c-5.46,0-8.7,4.8-8.7,11.22c0,5.88,2.88,10.74,8.58,10.74
			c3.54,0,6.78-2.34,7.74-6.3c0.18-0.72,0.24-1.44,0.24-2.28V63.43z"/>
		<linearGradient id="SVGID_7_" gradientUnits="userSpaceOnUse" x1="318.0186" y1="66.1039" x2="343.6367" y2="66.1039">
			<stop  offset="0" style="stop-color:#DB9600"/>
			<stop  offset="1" style="stop-color:#C64832"/>
		</linearGradient>
		<path class="st6" d="M323.06,67.09c0.12,7.14,4.68,10.08,9.96,10.08c3.78,0,6.06-0.66,8.04-1.5l0.9,3.78
			c-1.86,0.84-5.04,1.8-9.66,1.8c-8.94,0-14.28-5.88-14.28-14.64s5.16-15.66,13.62-15.66c9.48,0,12,8.34,12,13.68
			c0,1.08-0.12,1.92-0.18,2.46H323.06z M338.54,63.31c0.06-3.36-1.38-8.58-7.32-8.58c-5.34,0-7.68,4.92-8.1,8.58H338.54z"/>
	</g>
	<g>
		<linearGradient id="SVGID_8_" gradientUnits="userSpaceOnUse" x1="176.207" y1="116.0919" x2="201.8252" y2="116.0919">
			<stop  offset="0" style="stop-color:#DB9600"/>
			<stop  offset="1" style="stop-color:#C64832"/>
		</linearGradient>
		<path class="st7" d="M181.25,117.08c0.12,7.14,4.68,10.08,9.96,10.08c3.78,0,6.06-0.66,8.04-1.5l0.9,3.78
			c-1.86,0.84-5.04,1.8-9.66,1.8c-8.94,0-14.28-5.88-14.28-14.64c0-8.76,5.16-15.66,13.62-15.66c9.48,0,12,8.34,12,13.68
			c0,1.08-0.12,1.92-0.18,2.46H181.25z M196.73,113.3c0.06-3.36-1.38-8.58-7.32-8.58c-5.34,0-7.68,4.92-8.1,8.58H196.73z"/>
		<linearGradient id="SVGID_9_" gradientUnits="userSpaceOnUse" x1="208.126" y1="115.7921" x2="249.8242" y2="115.7921">
			<stop  offset="0" style="stop-color:#DB9600"/>
			<stop  offset="1" style="stop-color:#C64832"/>
		</linearGradient>
		<path class="st8" d="M208.37,109.46c0-3-0.06-5.46-0.24-7.86h4.62l0.24,4.68h0.18c1.62-2.76,4.32-5.34,9.12-5.34
			c3.96,0,6.96,2.4,8.22,5.82h0.12c0.9-1.62,2.04-2.88,3.24-3.78c1.74-1.32,3.66-2.04,6.42-2.04c3.84,0,9.54,2.52,9.54,12.6v17.1
			h-5.16V114.2c0-5.58-2.04-8.94-6.3-8.94c-3,0-5.34,2.22-6.24,4.8c-0.24,0.72-0.42,1.68-0.42,2.64v17.94h-5.16v-17.4
			c0-4.62-2.04-7.98-6.06-7.98c-3.3,0-5.7,2.64-6.54,5.28c-0.3,0.78-0.42,1.68-0.42,2.58v17.52h-5.16V109.46z"/>
		<linearGradient id="SVGID_10_" gradientUnits="userSpaceOnUse" x1="258.166" y1="121.7316" x2="285.8848" y2="121.7316">
			<stop  offset="0" style="stop-color:#DB9600"/>
			<stop  offset="1" style="stop-color:#C64832"/>
		</linearGradient>
		<path class="st9" d="M258.41,111.08c0-3.72-0.12-6.72-0.24-9.48h4.74l0.24,4.98h0.12c2.16-3.54,5.58-5.64,10.32-5.64
			c7.02,0,12.3,5.94,12.3,14.76c0,10.44-6.36,15.6-13.2,15.6c-3.84,0-7.2-1.68-8.94-4.56h-0.12v15.78h-5.22V111.08z M263.63,118.82
			c0,0.78,0.12,1.5,0.24,2.16c0.96,3.66,4.14,6.18,7.92,6.18c5.58,0,8.82-4.56,8.82-11.22c0-5.82-3.06-10.8-8.64-10.8
			c-3.6,0-6.96,2.58-7.98,6.54c-0.18,0.66-0.36,1.44-0.36,2.16V118.82z"/>
		<linearGradient id="SVGID_11_" gradientUnits="userSpaceOnUse" x1="292.3047" y1="115.7921" x2="306.8838" y2="115.7921">
			<stop  offset="0" style="stop-color:#DB9600"/>
			<stop  offset="1" style="stop-color:#C64832"/>
		</linearGradient>
		<path class="st10" d="M292.54,110.66c0-3.42-0.06-6.36-0.24-9.06h4.62l0.18,5.7h0.24c1.32-3.9,4.5-6.36,8.04-6.36
			c0.6,0,1.02,0.06,1.5,0.18v4.98c-0.54-0.12-1.08-0.18-1.8-0.18c-3.72,0-6.36,2.82-7.08,6.78c-0.12,0.72-0.24,1.56-0.24,2.46v15.48
			h-5.22V110.66z"/>
		<linearGradient id="SVGID_12_" gradientUnits="userSpaceOnUse" x1="309.4658" y1="110.1522" x2="335.084" y2="110.1522">
			<stop  offset="0" style="stop-color:#DB9600"/>
			<stop  offset="1" style="stop-color:#C64832"/>
		</linearGradient>
		<path class="st11" d="M314.5,117.08c0.12,7.14,4.68,10.08,9.96,10.08c3.78,0,6.06-0.66,8.04-1.5l0.9,3.78
			c-1.86,0.84-5.04,1.8-9.66,1.8c-8.94,0-14.28-5.88-14.28-14.64c0-8.76,5.16-15.66,13.62-15.66c9.48,0,12,8.34,12,13.68
			c0,1.08-0.12,1.92-0.18,2.46H314.5z M329.98,113.3c0.06-3.36-1.38-8.58-7.32-8.58c-5.34,0-7.68,4.92-8.1,8.58H329.98z
			 M331.24,89.06l-7.32,8.58h-3.78l5.28-8.58H331.24z"/>
		<linearGradient id="SVGID_13_" gradientUnits="userSpaceOnUse" x1="339.585" y1="116.0919" x2="358.6045" y2="116.0919">
			<stop  offset="0" style="stop-color:#DB9600"/>
			<stop  offset="1" style="stop-color:#C64832"/>
		</linearGradient>
		<path class="st12" d="M340.91,125.24c1.56,1.02,4.32,2.1,6.96,2.1c3.84,0,5.64-1.92,5.64-4.32c0-2.52-1.5-3.9-5.4-5.34
			c-5.22-1.86-7.68-4.74-7.68-8.22c0-4.68,3.78-8.52,10.02-8.52c2.94,0,5.52,0.84,7.14,1.8l-1.32,3.84
			c-1.14-0.72-3.24-1.68-5.94-1.68c-3.12,0-4.86,1.8-4.86,3.96c0,2.4,1.74,3.48,5.52,4.92c5.04,1.92,7.62,4.44,7.62,8.76
			c0,5.1-3.96,8.7-10.86,8.7c-3.18,0-6.12-0.78-8.16-1.98L340.91,125.24z"/>
		<linearGradient id="SVGID_14_" gradientUnits="userSpaceOnUse" x1="362.085" y1="112.2521" x2="379.3037" y2="112.2521">
			<stop  offset="0" style="stop-color:#DB9600"/>
			<stop  offset="1" style="stop-color:#C64832"/>
		</linearGradient>
		<path class="st13" d="M371.74,93.26v8.34h7.56v4.02h-7.56v15.66c0,3.6,1.02,5.64,3.96,5.64c1.38,0,2.4-0.18,3.06-0.36l0.24,3.96
			c-1.02,0.42-2.64,0.72-4.68,0.72c-2.46,0-4.44-0.78-5.7-2.22c-1.5-1.56-2.04-4.14-2.04-7.56v-15.84h-4.5v-4.02h4.5v-6.96
			L371.74,93.26z"/>
		<linearGradient id="SVGID_15_" gradientUnits="userSpaceOnUse" x1="384.584" y1="110.3922" x2="391.1259" y2="110.3922">
			<stop  offset="0" style="stop-color:#DB9600"/>
			<stop  offset="1" style="stop-color:#C64832"/>
		</linearGradient>
		<path class="st14" d="M391.12,93.44c0.06,1.8-1.26,3.24-3.36,3.24c-1.86,0-3.18-1.44-3.18-3.24c0-1.86,1.38-3.3,3.3-3.3
			C389.86,90.14,391.12,91.58,391.12,93.44z M385.24,130.64V101.6h5.28v29.04H385.24z"/>
		<linearGradient id="SVGID_16_" gradientUnits="userSpaceOnUse" x1="399.0439" y1="115.7921" x2="440.7422" y2="115.7921">
			<stop  offset="0" style="stop-color:#DB9600"/>
			<stop  offset="1" style="stop-color:#C64832"/>
		</linearGradient>
		<path class="st15" d="M399.28,109.46c0-3-0.06-5.46-0.24-7.86h4.62l0.24,4.68h0.18c1.62-2.76,4.32-5.34,9.12-5.34
			c3.96,0,6.96,2.4,8.22,5.82h0.12c0.9-1.62,2.04-2.88,3.24-3.78c1.74-1.32,3.66-2.04,6.42-2.04c3.84,0,9.54,2.52,9.54,12.6v17.1
			h-5.16V114.2c0-5.58-2.04-8.94-6.3-8.94c-3,0-5.34,2.22-6.24,4.8c-0.24,0.72-0.42,1.68-0.42,2.64v17.94h-5.16v-17.4
			c0-4.62-2.04-7.98-6.06-7.98c-3.3,0-5.7,2.64-6.54,5.28c-0.3,0.78-0.42,1.68-0.42,2.58v17.52h-5.16V109.46z"/>
		<linearGradient id="SVGID_17_" gradientUnits="userSpaceOnUse" x1="447.2246" y1="116.1222" x2="475.6035" y2="116.1222">
			<stop  offset="0" style="stop-color:#DB9600"/>
			<stop  offset="1" style="stop-color:#C64832"/>
		</linearGradient>
		<path class="st16" d="M475.6,115.88c0,10.74-7.44,15.42-14.46,15.42c-7.86,0-13.92-5.76-13.92-14.94c0-9.72,6.36-15.42,14.4-15.42
			C469.96,100.94,475.6,107,475.6,115.88z M452.56,116.18c0,6.36,3.66,11.16,8.82,11.16c5.04,0,8.82-4.74,8.82-11.28
			c0-4.92-2.46-11.16-8.7-11.16C455.26,104.9,452.56,110.66,452.56,116.18z"/>
		<linearGradient id="SVGID_18_" gradientUnits="userSpaceOnUse" x1="480.2236" y1="116.0919" x2="499.2432" y2="116.0919">
			<stop  offset="0" style="stop-color:#DB9600"/>
			<stop  offset="1" style="stop-color:#C64832"/>
		</linearGradient>
		<path class="st17" d="M481.54,125.24c1.56,1.02,4.32,2.1,6.96,2.1c3.84,0,5.64-1.92,5.64-4.32c0-2.52-1.5-3.9-5.4-5.34
			c-5.22-1.86-7.68-4.74-7.68-8.22c0-4.68,3.78-8.52,10.02-8.52c2.94,0,5.52,0.84,7.14,1.8l-1.32,3.84
			c-1.14-0.72-3.24-1.68-5.94-1.68c-3.12,0-4.86,1.8-4.86,3.96c0,2.4,1.74,3.48,5.52,4.92c5.04,1.92,7.62,4.44,7.62,8.76
			c0,5.1-3.96,8.7-10.86,8.7c-3.18,0-6.12-0.78-8.16-1.98L481.54,125.24z"/>
	</g>
</g>
</svg>
