<?xml version="1.0" encoding="utf-8"?>
<!-- Generator: Adobe Illustrator 24.0.2, SVG Export Plug-In . SVG Version: 6.00 Build 0)  -->
<svg version="1.1" id="Capa_1" xmlns="http://www.w3.org/2000/svg" xmlns:xlink="http://www.w3.org/1999/xlink" x="0px" y="0px"
	 viewBox="0 0 338.07 338.07" style="enable-background:new 0 0 338.07 338.07;" xml:space="preserve">
<style type="text/css">
	.st0{fill:#FFFFFF;}
	.st1{fill:#E9A255;}
	.st2{fill:#E68C2B;}
	.st3{fill:#D34819;}
	.st4{fill:#E94E1B;}
	.st5{fill:#E9741B;}
</style>
<path class="st0" d="M338.07,169.03c0,93.36-75.68,169.03-169.04,169.03C75.68,338.07,0,262.4,0,169.03C0,75.68,75.68,0,169.03,0
	C262.39,0,338.07,75.68,338.07,169.03z"/>
<path class="st1" d="M74.63,283.93c11.92-18.44,30.64-23.43,30.64-23.43l44.87-16.63h42.83l44.85,16.63c0,0,18.72,5,30.64,23.43
	H74.63z"/>
<g>
	<rect x="142.15" y="201.8" class="st1" width="58.8" height="57.33"/>
</g>
<g>
	<path class="st2" d="M200.95,228.44V201.8h-58.8v13.2C158.92,228.95,179.13,230.72,200.95,228.44z"/>
</g>
<path class="st3" d="M241.55,116.39c0-13.63-0.58-27.23-0.26-40.84c0.21-8.7,1-6.46-9.07-7.42c-13.96-1.32-18.63,24.62-19.6,35.84
	c-1.35,15.48,1.99,32.13,4.57,47.22c0.93,5.45,0.68,16.36,6.38,18.92c4.88,2.19,9.97-3.2,12.53-7.19c5.89-9.17,4.85-23.19,5.24-33.6
	C241.49,125,241.55,120.7,241.55,116.39z"/>
<path class="st1" d="M235.5,193.81c-5.94,23.26-16.41,29.67-16.41,29.67l-14.04,2.74c-8.07-1.03-22.01-4.32-22.01-4.32
	c-32.06-10.9-41.36-13.84-46.33-26.03c-0.21-0.52-25.27-87.54-25.27-87.54c-4.1-44.79,42.78-54.1,49.86-55.28
	c7-1.62,51.63-14.02,64.82,28.98C226.12,82.03,245.6,131.85,235.5,193.81z"/>
<path class="st3" d="M106.63,67.22c-15.58,7.51-16.11,21.42-15.38,37.23c0.57,12.27,4.35,22.73,8.74,34.62
	c7.48,20.28,7.48,20.28,14.11,31.94c0,0,10.33,16.06,23.63,27.07c-3.85-15.27-4.93-26.67-8.44-38.4
	c-4.22-14.07-2.98-32.91,3.28-47.36c0,0,3.55-9.62,18.12-12.36c14.58-2.75,0,0,0,0L106.63,67.22"/>
<path class="st1" d="M132.23,156.66c0,0-7.93-17.27-20.39-7.04c0,0-5.67,4.43,1.31,15.99c0,0,10.15,16.62,22.31,7.4L132.23,156.66z"
	/>
<path class="st3" d="M130.99,116.39c0,0,0.05,30.91,5.73,47.31l-6.02,1.2c0,0-3.17-21.21-14.08-21.46L130.99,116.39z"/>
<path class="st4" d="M249.25,50.17c50.12,51.04-101.53,50.52-101.53,50.52s-15.91,7.35-41.09-33.47c0,0-6.79-31.92,64.92-41.98
	C171.55,25.24,218.94,19.43,249.25,50.17z"/>
<path class="st5" d="M284.22,292.69c-16.59-26.83-41.35-32.2-41.35-32.2l-41.92-13.67c0,0,8.81,15.43-29.71,15.43
	c0,0-25.38-0.98-29.09-15.43l-42.57,13.67c0,0-5.57,1.4-12.7,5.34c-14.5,5.6-23.04,17.44-27.76,31.57
	c29.55,25.33,67.92,40.66,109.9,40.66C213.55,338.07,254.03,320.82,284.22,292.69z"/>
</svg>
